<svg xmlns="http://www.w3.org/2000/svg" width="20" height="18.218" viewBox="0 0 20 18.218">
  <g id="Group_11" data-name="Group 11" transform="translate(0 -0.01)">
    <g id="discuss-issue" transform="translate(0 0)">
      <path id="Shape" d="M11.908,18.218a.494.494,0,0,1-.334-.135L9.4,16.088H2.408A2.4,2.4,0,0,1,0,13.712V8.132a2.408,2.408,0,0,1,2.408-2.4H7.6V2.383A2.4,2.4,0,0,1,10.021,0h7.6A2.385,2.385,0,0,1,20,2.383V7.964a2.39,2.39,0,0,1-2.381,2.394H11.188c-.125,0-.229,0-.316,0h-.126c-.052,0-.087,0-.107,0-.042.028-.145.123-.241.212l-.064.057-.067.06L8.449,12.345a.506.506,0,0,1-.54.087.508.508,0,0,1-.306-.454V6.722H2.408A1.415,1.415,0,0,0,.992,8.132v5.581A1.4,1.4,0,0,0,2.408,15.1H9.592a.5.5,0,0,1,.33.14L11.4,16.6V11.891a.5.5,0,1,1,.992,0v5.837a.486.486,0,0,1-.292.451A.468.468,0,0,1,11.908,18.218ZM10.021.992A1.41,1.41,0,0,0,8.6,2.383v8.472l1-.9c.025-.023.052-.045.077-.066s.041-.034.058-.049c.431-.4.558-.476,1.047-.476h.118l.294,0h6.431a1.4,1.4,0,0,0,1.389-1.4V2.383A1.375,1.375,0,0,0,17.619.992ZM5.477,11.3H5.436a.5.5,0,0,1,0-.992h.041a.5.5,0,0,1,0,.992Zm-1.723,0H3.713a.5.5,0,0,1,0-.992h.041a.5.5,0,0,1,0,.992Zm9.953-3.452a.5.5,0,0,1,0-.994.5.5,0,0,1,0,.994ZM13.7,6.391h0a.488.488,0,0,1-.5-.484A1.47,1.47,0,0,1,13.887,4.8l.014-.012c.247-.207.409-.353.409-.487a.49.49,0,0,0-.981,0,.5.5,0,1,1-.992,0,1.482,1.482,0,0,1,2.965,0,1.657,1.657,0,0,1-.762,1.244l-.027.023c-.128.108-.323.271-.322.337a.488.488,0,0,1-.491.492Z" transform="translate(0 0.01)" fill="#5a5a5a"/>
    </g>
  </g>
</svg>
